<svg xmlns="http://www.w3.org/2000/svg" viewBox="0 0 48 48" fill="none">
  <!-- Shield shape -->
  <path d="M24 4L6 12v12c0 11.1 7.7 21.5 18 24 10.3-2.5 18-12.9 18-24V12L24 4z" fill="#7c3aed" opacity="0.15"/>
  <path d="M24 4L6 12v12c0 11.1 7.7 21.5 18 24 10.3-2.5 18-12.9 18-24V12L24 4z" stroke="#7c3aed" stroke-width="2" fill="none"/>
  <!-- Hash/chain links -->
  <rect x="14" y="16" width="8" height="4" rx="1" fill="#a78bfa"/>
  <rect x="26" y="16" width="8" height="4" rx="1" fill="#a78bfa"/>
  <rect x="20" y="22" width="8" height="4" rx="1" fill="#7c3aed"/>
  <rect x="14" y="28" width="8" height="4" rx="1" fill="#a78bfa"/>
  <rect x="26" y="28" width="8" height="4" rx="1" fill="#a78bfa"/>
  <!-- Connecting lines -->
  <line x1="22" y1="20" x2="26" y2="22" stroke="#7c3aed" stroke-width="1.5" opacity="0.6"/>
  <line x1="26" y1="20" x2="24" y2="22" stroke="#7c3aed" stroke-width="1.5" opacity="0.6"/>
  <line x1="22" y1="28" x2="24" y2="26" stroke="#7c3aed" stroke-width="1.5" opacity="0.6"/>
  <line x1="28" y1="26" x2="26" y2="28" stroke="#7c3aed" stroke-width="1.5" opacity="0.6"/>
</svg>
